<?xml version='1.0' encoding='utf-8'?>
<svg xmlns="http://www.w3.org/2000/svg" width="750" height="500" viewBox="0 0 749.99997 500" id="svg2" version="1.1"> <defs id="defs4"> <marker orient="auto" refY="0.0" refX="0.0" id="marker5220" style="overflow:visible"> <path id="path5222" d="M -2.5,-1.0 C -2.5,1.7600000 -4.7400000,4.0 -7.5,4.0 C -10.260000,4.0 -12.5,1.7600000 -12.5,-1.0 C -12.5,-3.7600000 -10.260000,-6.0 -7.5,-6.0 C -4.7400000,-6.0 -2.5,-3.7600000 -2.5,-1.0 z " style="fill-rule:evenodd;stroke:#f6f6f6;stroke-width:1pt;stroke-opacity:1;fill:#f6f6f6;fill-opacity:1" transform="scale(0.4) translate(7.4, 1)"/> </marker> <marker orient="auto" refY="0.0" refX="0.0" id="marker5168" style="overflow:visible"> <path id="path5170" d="M -2.5,-1.0 C -2.5,1.7600000 -4.7400000,4.0 -7.5,4.0 C -10.260000,4.0 -12.5,1.7600000 -12.5,-1.0 C -12.5,-3.7600000 -10.260000,-6.0 -7.5,-6.0 C -4.7400000,-6.0 -2.5,-3.7600000 -2.5,-1.0 z " style="fill-rule:evenodd;stroke:#f6f6f6;stroke-width:1pt;stroke-opacity:1;fill:#f6f6f6;fill-opacity:1" transform="scale(0.2) translate(7.4, 1)"/> </marker> <marker orient="auto" refY="0.0" refX="0.0" id="DotS" style="overflow:visible"> <path id="path4611" d="M -2.5,-1.0 C -2.5,1.7600000 -4.7400000,4.0 -7.5,4.0 C -10.260000,4.0 -12.5,1.7600000 -12.5,-1.0 C -12.5,-3.7600000 -10.260000,-6.0 -7.5,-6.0 C -4.7400000,-6.0 -2.5,-3.7600000 -2.5,-1.0 z " style="fill-rule:evenodd;stroke:#f6f6f6;stroke-width:1pt;stroke-opacity:1;fill:#f6f6f6;fill-opacity:1" transform="scale(0.2) translate(7.4, 1)"/> </marker> <marker orient="auto" refY="0.0" refX="0.0" id="Arrow1Send" style="overflow:visible;"> <path id="path4559" d="M 0.0,0.0 L 5.0,-5.0 L -12.5,0.0 L 5.0,5.0 L 0.0,0.0 z " style="fill-rule:evenodd;stroke:#f6f6f6;stroke-width:1pt;stroke-opacity:1;fill:#f6f6f6;fill-opacity:1" transform="scale(0.2) rotate(180) translate(6,0)"/> </marker> <marker orient="auto" refY="0.0" refX="0.0" id="DotL" style="overflow:visible"> <path id="path4605" d="M -2.5,-1.0 C -2.5,1.7600000 -4.7400000,4.0 -7.5,4.0 C -10.260000,4.0 -12.5,1.7600000 -12.5,-1.0 C -12.5,-3.7600000 -10.260000,-6.0 -7.5,-6.0 C -4.7400000,-6.0 -2.5,-3.7600000 -2.5,-1.0 z " style="fill-rule:evenodd;stroke:#f6f6f6;stroke-width:1pt;stroke-opacity:1;fill:#f6f6f6;fill-opacity:1" transform="scale(0.8) translate(7.4, 1)"/> </marker> <marker orient="auto" refY="0.0" refX="0.0" id="DotM" style="overflow:visible"> <path id="path4608" d="M -2.5,-1.0 C -2.5,1.7600000 -4.7400000,4.0 -7.5,4.0 C -10.260000,4.0 -12.5,1.7600000 -12.5,-1.0 C -12.5,-3.7600000 -10.260000,-6.0 -7.5,-6.0 C -4.7400000,-6.0 -2.5,-3.7600000 -2.5,-1.0 z " style="fill-rule:evenodd;stroke:#f6f6f6;stroke-width:1pt;stroke-opacity:1;fill:#f6f6f6;fill-opacity:1" transform="scale(0.4) translate(7.4, 1)"/> </marker> <filter style="color-interpolation-filters:sRGB" id="filter4306" x="-0.06316238" width="1.1263248" y="-0.1019491" height="1.2038982"> <feGaussianBlur stdDeviation="15.261681" id="feGaussianBlur4308"/> </filter> </defs> <metadata id="metadata7"> </metadata> <g id="layer1" transform="translate(0,-552.36188)"> <rect style="fill:#81f5ca;fill-opacity:1;stroke:none;stroke-width:26;stroke-linecap:round;stroke-linejoin:round;stroke-miterlimit:4;stroke-dasharray:none;stroke-opacity:1" id="rect4135" width="750" height="500" x="0" y="552.36188"/> </g> <g id="layer3" style="display:inline"> <rect style="fill:#000000;fill-opacity:0.17254902;stroke:none;stroke-width:26;stroke-linecap:round;stroke-linejoin:round;stroke-miterlimit:4;stroke-dasharray:none;stroke-opacity:1;filter:url(#filter4306)" id="rect4138-2" width="579.90271" height="359.27768" x="85.04866" y="95.930412" ry="5.7746706" transform="matrix(1.0158384,0,0,0.99854155,-5.939411,0.40190519)"/> </g> <g id="layer2" style="display:inline"> <rect style="fill:#ffffff;fill-opacity:1;stroke:none;stroke-width:26;stroke-linecap:round;stroke-linejoin:round;stroke-miterlimit:4;stroke-dasharray:none;stroke-opacity:1" id="rect4138" width="602.0199" height="381.39523" x="73.990067" y="59.302376" ry="6.1301661"/> <path style="fill:#f6f6f6;fill-opacity:1;stroke:none;stroke-width:26;stroke-linecap:round;stroke-linejoin:round;stroke-miterlimit:4;stroke-dasharray:none;stroke-opacity:1" d="m 80.121094,59.302734 c -3.396112,0 -6.13086,2.732795 -6.13086,6.128907 l 0,15.987953 602.019536,0 0,-15.987953 c 0,-3.396112 -2.73475,-6.128907 -6.13086,-6.128907 z" id="rect4160"/> <circle style="fill:#f2b2b2;fill-opacity:1;stroke:none;stroke-width:26;stroke-linecap:round;stroke-linejoin:round;stroke-miterlimit:4;stroke-dasharray:none;stroke-opacity:1" id="path4180" cx="85.04866" cy="70.36116" r="6.0005393"/> <circle style="fill:#e3e3c1;fill-opacity:1;stroke:none;stroke-width:26;stroke-linecap:round;stroke-linejoin:round;stroke-miterlimit:4;stroke-dasharray:none;stroke-opacity:1" id="path4180-7" cx="102.10763" cy="70.36116" r="6.0005393"/> <circle style="fill:#b4edf0;fill-opacity:1;stroke:none;stroke-width:26;stroke-linecap:round;stroke-linejoin:round;stroke-miterlimit:4;stroke-dasharray:none;stroke-opacity:1" id="path4180-3" cx="119.1666" cy="70.36116" r="6.0005393"/> </g> <g id="layer4"> <path style="fill:#b9eaef;fill-opacity:1;stroke:none;stroke-width:26;stroke-linecap:round;stroke-linejoin:round;stroke-miterlimit:4;stroke-dasharray:none;stroke-opacity:1" d="m 557.33755,111.13056 a 85.05114,85.05114 0 0 0 -36.07422,8.13281 l 36.07422,76.91992 0,-85.05273 z" id="path4330"/> <path style="fill:#befbc0;fill-opacity:1;stroke:none;stroke-width:26;stroke-linecap:round;stroke-linejoin:round;stroke-miterlimit:4;stroke-dasharray:none;stroke-opacity:1" d="m 517.08318,118.72399 a 85.05114,85.05114 0 0 0 -40.70898,40.58203 l 76.7832,36.33789 -36.07422,-76.91992 z" id="path4330-9"/> <path style="fill:#f3beee;fill-opacity:1;stroke:none;stroke-width:26;stroke-linecap:round;stroke-linejoin:round;stroke-miterlimit:4;stroke-dasharray:none;stroke-opacity:1" d="m 477.99232,164.69782 a 85.05114,85.05114 0 0 0 -8.26758,36.33984 85.05114,85.05114 0 0 0 24.94922,60.10156 l 60.10156,-60.10156 -76.7832,-36.33984 z" id="path4330-1"/> <path style="fill:#fcfcd8;fill-opacity:1;stroke:none;stroke-width:26;stroke-linecap:round;stroke-linejoin:round;stroke-miterlimit:4;stroke-dasharray:none;stroke-opacity:1" d="m 558.82083,203.19514 -60.10156,60.10156 a 85.05114,85.05114 0 0 0 60.10156,24.94922 85.05114,85.05114 0 0 0 82.05469,-63.06445 l -82.05469,-21.98633 z" id="path4330-2"/> <path style="fill:#ffbebe;fill-opacity:1;stroke:none;stroke-width:26;stroke-linecap:round;stroke-linejoin:round;stroke-miterlimit:4;stroke-dasharray:none;stroke-opacity:1" d="m 561.24802,112.88353 0,85.05273 82.05469,21.98633 a 85.05114,85.05114 0 0 0 2.99609,-21.98633 85.05114,85.05114 0 0 0 -85.05078,-85.05273 z" id="path4330-7"/> <path style="color:#000000;font-style:normal;font-variant:normal;font-weight:normal;font-stretch:normal;font-size:medium;line-height:normal;font-family:sans-serif;text-indent:0;text-align:start;text-decoration:none;text-decoration-line:none;text-decoration-style:solid;text-decoration-color:#000000;letter-spacing:normal;word-spacing:normal;text-transform:none;direction:ltr;block-progression:tb;writing-mode:lr-tb;baseline-shift:baseline;text-anchor:start;white-space:normal;clip-rule:nonzero;display:inline;overflow:visible;visibility:visible;opacity:1;isolation:auto;mix-blend-mode:normal;color-interpolation:sRGB;color-interpolation-filters:linearRGB;solid-color:#000000;solid-opacity:1;fill:#f6f6f6;fill-opacity:1;fill-rule:evenodd;stroke:none;stroke-width:5;stroke-linecap:round;stroke-linejoin:round;stroke-miterlimit:4;stroke-dasharray:none;stroke-dashoffset:0;stroke-opacity:1;color-rendering:auto;image-rendering:auto;shape-rendering:auto;text-rendering:auto;enable-background:accumulate" d="m 110.32617,146.66406 a 2.50025,2.50025 0 0 0 -2.46094,2.53516 l 0,255.125 a 2.50025,2.50025 0 0 0 2.5,2.5 l 310.13868,0 a 2.50025,2.50025 0 1 0 0,-5 l -307.63868,0 0,-252.625 a 2.50025,2.50025 0 0 0 -2.53906,-2.53516 z" id="path4452"/> <path style="color:#000000;font-style:normal;font-variant:normal;font-weight:normal;font-stretch:normal;font-size:medium;line-height:normal;font-family:sans-serif;text-indent:0;text-align:start;text-decoration:none;text-decoration-line:none;text-decoration-style:solid;text-decoration-color:#000000;letter-spacing:normal;word-spacing:normal;text-transform:none;direction:ltr;block-progression:tb;writing-mode:lr-tb;baseline-shift:baseline;text-anchor:start;white-space:normal;clip-rule:nonzero;display:inline;overflow:visible;visibility:visible;opacity:1;isolation:auto;mix-blend-mode:normal;color-interpolation:sRGB;color-interpolation-filters:linearRGB;solid-color:#000000;solid-opacity:1;fill:#f6f6f6;fill-opacity:1;fill-rule:evenodd;stroke:none;stroke-width:5;stroke-linecap:round;stroke-linejoin:round;stroke-miterlimit:4;stroke-dasharray:none;stroke-dashoffset:0;stroke-opacity:1;color-rendering:auto;image-rendering:auto;shape-rendering:auto;text-rendering:auto;enable-background:accumulate" d="M 110.30078 144.13867 A 2.50025 2.50025 0 0 0 110.27734 144.14062 A 2.50025 2.50025 0 0 0 108.27344 145.18164 L 98.421875 155.0332 A 2.50025 2.50025 0 1 0 101.95703 158.56836 L 110.32617 150.19922 L 118.69531 158.56836 A 2.50025 2.50025 0 1 0 122.23047 155.0332 L 112.375 145.17578 A 2.50025 2.50025 0 0 0 110.54883 144.15039 A 2.50025 2.50025 0 0 0 110.4082 144.14453 A 2.50025 2.50025 0 0 0 110.30078 144.13867 z " id="path4458"/> <path style="color:#000000;font-style:normal;font-variant:normal;font-weight:normal;font-stretch:normal;font-size:medium;line-height:normal;font-family:sans-serif;text-indent:0;text-align:start;text-decoration:none;text-decoration-line:none;text-decoration-style:solid;text-decoration-color:#000000;letter-spacing:normal;word-spacing:normal;text-transform:none;direction:ltr;block-progression:tb;writing-mode:lr-tb;baseline-shift:baseline;text-anchor:start;white-space:normal;clip-rule:nonzero;display:inline;overflow:visible;visibility:visible;opacity:1;isolation:auto;mix-blend-mode:normal;color-interpolation:sRGB;color-interpolation-filters:linearRGB;solid-color:#000000;solid-opacity:1;fill:#f6f6f6;fill-opacity:1;fill-rule:evenodd;stroke:none;stroke-width:5;stroke-linecap:round;stroke-linejoin:round;stroke-miterlimit:4;stroke-dasharray:none;stroke-dashoffset:0;stroke-opacity:1;color-rendering:auto;image-rendering:auto;shape-rendering:auto;text-rendering:auto;enable-background:accumulate" d="m 424.07667,404.14782 a 2.50025,2.50025 0 0 0 -0.002,-0.0234 2.50025,2.50025 0 0 0 -1.04102,-2.00389 l -9.85156,-9.85158 a 2.50025,2.50025 0 1 0 -3.53516,3.53516 l 8.36914,8.36915 -8.36914,8.36914 a 2.50025,2.50025 0 1 0 3.53516,3.53515 l 9.85743,-9.85547 a 2.50025,2.50025 0 0 0 1.02538,-1.82616 2.50025,2.50025 0 0 0 0.006,-0.14063 2.50025,2.50025 0 0 0 0.006,-0.10743 z" id="path4458-1"/> <path style="fill:none;fill-rule:evenodd;stroke:#f6f6f6;stroke-width:4;stroke-linecap:butt;stroke-linejoin:miter;stroke-miterlimit:4;stroke-dasharray:8, 4;stroke-dashoffset:0;stroke-opacity:1;marker-mid:url(#marker5220);marker-end:url(#marker5220)" d="m 110.36523,363.35016 68.50913,-18.68836 68.50913,-83.14417 68.50912,16.78139 68.50914,-81.99998" id="path4538"/> </g> </svg>